<svg aria-hidden="true" style="position: absolute; width: 0; height: 0; overflow: hidden;" version="1.1" xmlns="http://www.w3.org/2000/svg" xmlns:xlink="http://www.w3.org/1999/xlink">
<defs>
<symbol id="icon-facebook-logo" viewBox="0 0 32 32">
<title>facebook-logo</title>
<path d="M23.999 0.007l-4.15-0.007c-4.662 0-7.675 3.091-7.675 7.875v3.631h-4.172c-0.361 0-0.652 0.292-0.652 0.653v5.261c0 0.361 0.292 0.652 0.652 0.652h4.172v13.275c0 0.361 0.292 0.653 0.652 0.653h5.444c0.361 0 0.652-0.292 0.652-0.652v-13.275h4.878c0.361 0 0.652-0.292 0.652-0.652l0.002-5.261c0-0.173-0.069-0.339-0.191-0.461s-0.289-0.191-0.462-0.191h-4.88v-3.078c0-1.479 0.353-2.23 2.28-2.23l2.795-0.001c0.36 0 0.652-0.292 0.652-0.652v-4.885c0-0.36-0.292-0.652-0.651-0.652z"></path>
</symbol>
<symbol id="icon-instagram-logo" viewBox="0 0 32 32">
<title>instagram-logo</title>
<path d="M23.169 0h-14.338c-4.869 0-8.831 3.962-8.831 8.831v14.338c0 4.869 3.961 8.831 8.831 8.831h14.338c4.87 0 8.831-3.962 8.831-8.831v-14.338c0-4.869-3.961-8.831-8.831-8.831zM29.161 23.169c0 3.304-2.688 5.992-5.992 5.992h-14.338c-3.304 0-5.991-2.688-5.991-5.992v-14.338c0-3.304 2.688-5.992 5.991-5.992h14.338c3.304 0 5.992 2.688 5.992 5.992v14.338z"></path>
<path d="M16 7.755c-4.547 0-8.246 3.699-8.246 8.246s3.699 8.245 8.246 8.245 8.246-3.699 8.246-8.245c0-4.547-3.699-8.246-8.246-8.246zM16 21.406c-2.981 0-5.406-2.425-5.406-5.406s2.425-5.406 5.406-5.406 5.406 2.425 5.406 5.406c0 2.981-2.425 5.406-5.406 5.406z"></path>
<path d="M24.591 5.347c-0.547 0-1.084 0.221-1.471 0.609-0.388 0.386-0.611 0.924-0.611 1.473 0 0.547 0.223 1.085 0.611 1.473 0.386 0.386 0.924 0.609 1.471 0.609 0.549 0 1.085-0.223 1.473-0.609 0.388-0.388 0.609-0.926 0.609-1.473 0-0.549-0.221-1.086-0.609-1.473-0.386-0.388-0.924-0.609-1.473-0.609z"></path>
</symbol>
<symbol id="icon-twitter" viewBox="0 0 32 32">
<title>twitter</title>
<path d="M32 6.078c-1.19 0.522-2.458 0.868-3.78 1.036 1.36-0.812 2.398-2.088 2.886-3.626-1.268 0.756-2.668 1.29-4.16 1.588-1.204-1.282-2.92-2.076-4.792-2.076-3.632 0-6.556 2.948-6.556 6.562 0 0.52 0.044 1.020 0.152 1.496-5.454-0.266-10.28-2.88-13.522-6.862-0.566 0.982-0.898 2.106-0.898 3.316 0 2.272 1.17 4.286 2.914 5.452-1.054-0.020-2.088-0.326-2.964-0.808 0 0.020 0 0.046 0 0.072 0 3.188 2.274 5.836 5.256 6.446-0.534 0.146-1.116 0.216-1.72 0.216-0.42 0-0.844-0.024-1.242-0.112 0.85 2.598 3.262 4.508 6.13 4.57-2.232 1.746-5.066 2.798-8.134 2.798-0.538 0-1.054-0.024-1.57-0.090 2.906 1.874 6.35 2.944 10.064 2.944 12.072 0 18.672-10 18.672-18.668 0-0.29-0.010-0.57-0.024-0.848 1.302-0.924 2.396-2.078 3.288-3.406z"></path>
</symbol>
<symbol id="icon-pinterest" viewBox="0 0 32 32">
<title>pinterest</title>
<path d="M25.314 3.279c-2.203-2.115-5.251-3.279-8.583-3.279-5.090 0-8.221 2.087-9.951 3.837-2.132 2.157-3.355 5.021-3.355 7.858 0 3.562 1.49 6.296 3.985 7.313 0.168 0.069 0.336 0.103 0.501 0.103 0.526 0 0.943-0.344 1.088-0.897 0.084-0.317 0.279-1.099 0.364-1.438 0.182-0.67 0.035-0.993-0.361-1.46-0.722-0.854-1.058-1.864-1.058-3.178 0-3.903 2.906-8.051 8.293-8.051 4.274 0 6.929 2.429 6.929 6.34 0 2.468-0.532 4.753-1.497 6.435-0.671 1.169-1.851 2.562-3.662 2.562-0.783 0-1.487-0.322-1.931-0.883-0.419-0.53-0.558-1.215-0.389-1.929 0.191-0.806 0.45-1.648 0.702-2.461 0.459-1.485 0.892-2.888 0.892-4.008 0-1.915-1.177-3.201-2.929-3.201-2.226 0-3.97 2.261-3.97 5.147 0 1.415 0.376 2.474 0.546 2.881-0.28 1.188-1.947 8.252-2.263 9.584-0.183 0.778-1.284 6.919 0.539 7.409 2.048 0.55 3.878-5.431 4.064-6.107 0.151-0.55 0.679-2.628 1.003-3.906 0.989 0.952 2.58 1.596 4.129 1.596 2.92 0 5.545-1.314 7.394-3.699 1.792-2.314 2.78-5.539 2.78-9.080 0-2.769-1.189-5.498-3.262-7.488z"></path>
</symbol>
<symbol id="icon-buy" viewBox="0 0 32 32">
<title>buy</title>
<path d="M31.513 9.179h0.002l-4.4 9.778c-0.217 0.482-0.686 0.825-1.239 0.862v0l-12.672 0.844 0.732 2.091h13.797c1.62 0 2.933 1.314 2.933 2.935 0 1.62-1.314 2.933-2.933 2.933s-2.933-1.314-2.933-2.933h-13.689c0 1.62-1.314 2.933-2.933 2.933s-2.933-1.314-2.933-2.933c0-1.621 1.314-2.935 2.933-2.935h2.651l-5.646-16.132h-3.36c-0.811 0-1.467-0.658-1.467-1.467 0-0.811 0.656-1.467 1.467-1.467h4.4c0.64 0 1.179 0.412 1.38 0.983l0.005-0.002 0.853 2.441h21.717c0.811 0 1.467 0.656 1.467 1.467 0 0.213-0.048 0.416-0.132 0.601zM9.488 10.044l2.711 7.746 12.603-0.841 3.108-6.905h-18.421z"></path>
</symbol>
<symbol id="icon-find" viewBox="0 0 32 32">
<title>find</title>
<path d="M30.786 26.636c0.53 0.53 0.859 1.264 0.859 2.075 0 1.62-1.314 2.933-2.933 2.933-0.811 0-1.543-0.329-2.075-0.86v0l-8.597-8.596c-1.746 1.031-3.776 1.634-5.95 1.634-6.48 0-11.733-5.253-11.733-11.733s5.253-11.733 11.733-11.733c6.48 0 11.733 5.253 11.733 11.733 0 2.174-0.603 4.204-1.634 5.95l8.597 8.597zM12.089 3.287c-4.86 0-8.8 3.941-8.8 8.802s3.94 8.8 8.8 8.8c4.86 0 8.8-3.94 8.8-8.8s-3.94-8.802-8.8-8.802z"></path>
</symbol>
</defs>
</svg>
